<mxfile host="app.diagrams.net" agent="Mozilla/5.0 (Windows NT 10.0; Win64; x64) AppleWebKit/537.36 (KHTML, like Gecko) Chrome/128.0.0.0 Safari/537.36" version="24.7.8">
  <diagram name="Página-1" id="H7HUCjGm8zY39pyIcOZ-">
    <mxGraphModel dx="1434" dy="1949" grid="1" gridSize="10" guides="1" tooltips="1" connect="1" arrows="1" fold="1" page="1" pageScale="1" pageWidth="827" pageHeight="1169" math="0" shadow="0">
      <root>
        <mxCell id="0" />
        <mxCell id="1" parent="0" />
        <mxCell id="9FBKKlJFUN3YDxZt-M1E-1" value="" style="html=1;whiteSpace=wrap;" vertex="1" parent="1">
          <mxGeometry x="70" y="-90" width="880" height="1080" as="geometry" />
        </mxCell>
        <mxCell id="9FBKKlJFUN3YDxZt-M1E-2" value="" style="ellipse;html=1;shape=startState;fillColor=#000000;strokeColor=#ff0000;" vertex="1" parent="1">
          <mxGeometry x="390" y="-20" width="30" height="30" as="geometry" />
        </mxCell>
        <mxCell id="9FBKKlJFUN3YDxZt-M1E-3" value="" style="edgeStyle=orthogonalEdgeStyle;html=1;verticalAlign=bottom;endArrow=open;endSize=8;strokeColor=#ff0000;rounded=0;fontSize=12;curved=1;entryX=0.5;entryY=0;entryDx=0;entryDy=0;" edge="1" parent="1" source="9FBKKlJFUN3YDxZt-M1E-2" target="9FBKKlJFUN3YDxZt-M1E-25">
          <mxGeometry relative="1" as="geometry">
            <mxPoint x="980" y="280" as="targetPoint" />
            <Array as="points">
              <mxPoint x="406" y="70" />
              <mxPoint x="406" y="70" />
            </Array>
          </mxGeometry>
        </mxCell>
        <mxCell id="9FBKKlJFUN3YDxZt-M1E-4" value="" style="edgeStyle=none;curved=1;rounded=0;orthogonalLoop=1;jettySize=auto;html=1;fontSize=12;startSize=8;endSize=8;" edge="1" parent="1" source="9FBKKlJFUN3YDxZt-M1E-5" target="9FBKKlJFUN3YDxZt-M1E-8">
          <mxGeometry relative="1" as="geometry" />
        </mxCell>
        <mxCell id="9FBKKlJFUN3YDxZt-M1E-5" value="Inserir informações de recuperação" style="html=1;whiteSpace=wrap;" vertex="1" parent="1">
          <mxGeometry x="350.5" y="290" width="110" height="50" as="geometry" />
        </mxCell>
        <mxCell id="9FBKKlJFUN3YDxZt-M1E-6" value="" style="edgeStyle=none;curved=1;rounded=0;orthogonalLoop=1;jettySize=auto;html=1;fontSize=12;startSize=8;endSize=8;" edge="1" parent="1" source="9FBKKlJFUN3YDxZt-M1E-8" target="9FBKKlJFUN3YDxZt-M1E-10">
          <mxGeometry relative="1" as="geometry" />
        </mxCell>
        <mxCell id="9FBKKlJFUN3YDxZt-M1E-7" value="" style="edgeStyle=none;curved=1;rounded=0;orthogonalLoop=1;jettySize=auto;html=1;fontSize=12;startSize=8;endSize=8;" edge="1" parent="1" source="9FBKKlJFUN3YDxZt-M1E-8" target="9FBKKlJFUN3YDxZt-M1E-16">
          <mxGeometry relative="1" as="geometry" />
        </mxCell>
        <mxCell id="9FBKKlJFUN3YDxZt-M1E-8" value="Informações validas?" style="rhombus;whiteSpace=wrap;html=1;" vertex="1" parent="1">
          <mxGeometry x="357.5" y="445" width="95" height="85" as="geometry" />
        </mxCell>
        <mxCell id="9FBKKlJFUN3YDxZt-M1E-9" value="" style="edgeStyle=none;curved=1;rounded=0;orthogonalLoop=1;jettySize=auto;html=1;fontSize=12;startSize=8;endSize=8;" edge="1" parent="1" source="9FBKKlJFUN3YDxZt-M1E-10" target="9FBKKlJFUN3YDxZt-M1E-12">
          <mxGeometry relative="1" as="geometry" />
        </mxCell>
        <mxCell id="9FBKKlJFUN3YDxZt-M1E-10" value="Enviar email" style="whiteSpace=wrap;html=1;" vertex="1" parent="1">
          <mxGeometry x="130" y="457.5" width="120" height="60" as="geometry" />
        </mxCell>
        <mxCell id="9FBKKlJFUN3YDxZt-M1E-11" style="edgeStyle=orthogonalEdgeStyle;rounded=0;orthogonalLoop=1;jettySize=auto;html=1;" edge="1" parent="1" source="9FBKKlJFUN3YDxZt-M1E-12" target="9FBKKlJFUN3YDxZt-M1E-14">
          <mxGeometry relative="1" as="geometry">
            <Array as="points">
              <mxPoint x="190.5" y="800" />
            </Array>
          </mxGeometry>
        </mxCell>
        <mxCell id="9FBKKlJFUN3YDxZt-M1E-12" value="Recuperar senha" style="whiteSpace=wrap;html=1;" vertex="1" parent="1">
          <mxGeometry x="130" y="637.5" width="120" height="60" as="geometry" />
        </mxCell>
        <mxCell id="9FBKKlJFUN3YDxZt-M1E-13" value="" style="edgeStyle=none;curved=1;rounded=0;orthogonalLoop=1;jettySize=auto;html=1;fontSize=12;startSize=8;endSize=8;" edge="1" parent="1" source="9FBKKlJFUN3YDxZt-M1E-14" target="9FBKKlJFUN3YDxZt-M1E-22">
          <mxGeometry relative="1" as="geometry" />
        </mxCell>
        <mxCell id="9FBKKlJFUN3YDxZt-M1E-14" value="" style="rhombus;whiteSpace=wrap;html=1;" vertex="1" parent="1">
          <mxGeometry x="365.5" y="760" width="80" height="80" as="geometry" />
        </mxCell>
        <mxCell id="9FBKKlJFUN3YDxZt-M1E-15" value="" style="edgeStyle=none;curved=1;rounded=0;orthogonalLoop=1;jettySize=auto;html=1;fontSize=12;startSize=8;endSize=8;" edge="1" parent="1" source="9FBKKlJFUN3YDxZt-M1E-16" target="9FBKKlJFUN3YDxZt-M1E-19">
          <mxGeometry relative="1" as="geometry" />
        </mxCell>
        <mxCell id="9FBKKlJFUN3YDxZt-M1E-16" value="Exibir erro" style="whiteSpace=wrap;html=1;" vertex="1" parent="1">
          <mxGeometry x="560" y="457.5" width="120" height="60" as="geometry" />
        </mxCell>
        <mxCell id="9FBKKlJFUN3YDxZt-M1E-17" style="edgeStyle=orthogonalEdgeStyle;rounded=0;orthogonalLoop=1;jettySize=auto;html=1;" edge="1" parent="1" source="9FBKKlJFUN3YDxZt-M1E-19" target="9FBKKlJFUN3YDxZt-M1E-5">
          <mxGeometry relative="1" as="geometry">
            <Array as="points">
              <mxPoint x="855.5" y="310" />
            </Array>
          </mxGeometry>
        </mxCell>
        <mxCell id="9FBKKlJFUN3YDxZt-M1E-18" style="edgeStyle=orthogonalEdgeStyle;rounded=0;orthogonalLoop=1;jettySize=auto;html=1;" edge="1" parent="1" source="9FBKKlJFUN3YDxZt-M1E-19" target="9FBKKlJFUN3YDxZt-M1E-14">
          <mxGeometry relative="1" as="geometry">
            <Array as="points">
              <mxPoint x="855.5" y="800" />
            </Array>
          </mxGeometry>
        </mxCell>
        <mxCell id="9FBKKlJFUN3YDxZt-M1E-19" value="Tentar novamente?" style="rhombus;whiteSpace=wrap;html=1;" vertex="1" parent="1">
          <mxGeometry x="810.5" y="447.5" width="90.5" height="82.5" as="geometry" />
        </mxCell>
        <mxCell id="9FBKKlJFUN3YDxZt-M1E-20" value="Se sim" style="text;html=1;align=center;verticalAlign=middle;resizable=0;points=[];autosize=1;strokeColor=none;fillColor=none;fontSize=16;rotation=0;" vertex="1" parent="1">
          <mxGeometry x="780.5" y="427.5" width="70" height="30" as="geometry" />
        </mxCell>
        <mxCell id="9FBKKlJFUN3YDxZt-M1E-21" value="Se não" style="text;html=1;align=center;verticalAlign=middle;resizable=0;points=[];autosize=1;strokeColor=none;fillColor=none;fontSize=16;rotation=0;" vertex="1" parent="1">
          <mxGeometry x="780.5" y="530" width="70" height="30" as="geometry" />
        </mxCell>
        <mxCell id="9FBKKlJFUN3YDxZt-M1E-22" value="" style="ellipse;html=1;shape=endState;fillColor=#000000;strokeColor=#ff0000;" vertex="1" parent="1">
          <mxGeometry x="390.5" y="900" width="30" height="30" as="geometry" />
        </mxCell>
        <mxCell id="9FBKKlJFUN3YDxZt-M1E-23" value="Se não" style="text;html=1;align=center;verticalAlign=middle;resizable=0;points=[];autosize=1;strokeColor=none;fillColor=none;" vertex="1" parent="1">
          <mxGeometry x="445.5" y="457.5" width="60" height="30" as="geometry" />
        </mxCell>
        <mxCell id="9FBKKlJFUN3YDxZt-M1E-24" value="Se sim" style="text;html=1;align=center;verticalAlign=middle;resizable=0;points=[];autosize=1;strokeColor=none;fillColor=none;" vertex="1" parent="1">
          <mxGeometry x="297.5" y="457.5" width="60" height="30" as="geometry" />
        </mxCell>
        <mxCell id="9FBKKlJFUN3YDxZt-M1E-25" value="&#xa;&lt;span style=&quot;color: rgb(0, 0, 0); font-family: Helvetica; font-size: 12px; font-style: normal; font-variant-ligatures: normal; font-variant-caps: normal; font-weight: 400; letter-spacing: normal; orphans: 2; text-align: center; text-indent: 0px; text-transform: none; widows: 2; word-spacing: 0px; -webkit-text-stroke-width: 0px; white-space: normal; background-color: rgb(251, 251, 251); text-decoration-thickness: initial; text-decoration-style: initial; text-decoration-color: initial; display: inline !important; float: none;&quot;&gt;você sabe sua senha atual?&lt;/span&gt;&#xa;&#xa;" style="rhombus;whiteSpace=wrap;html=1;" vertex="1" parent="1">
          <mxGeometry x="365.5" y="110" width="80" height="80" as="geometry" />
        </mxCell>
        <mxCell id="9FBKKlJFUN3YDxZt-M1E-26" style="edgeStyle=orthogonalEdgeStyle;rounded=0;orthogonalLoop=1;jettySize=auto;html=1;entryX=0.5;entryY=0;entryDx=0;entryDy=0;" edge="1" parent="1" target="9FBKKlJFUN3YDxZt-M1E-27">
          <mxGeometry relative="1" as="geometry">
            <Array as="points">
              <mxPoint x="230.5" y="150" />
            </Array>
            <mxPoint x="365.5" y="150" as="sourcePoint" />
          </mxGeometry>
        </mxCell>
        <mxCell id="9FBKKlJFUN3YDxZt-M1E-27" value="use ela" style="html=1;whiteSpace=wrap;" vertex="1" parent="1">
          <mxGeometry x="175.5" y="200" width="110" height="50" as="geometry" />
        </mxCell>
        <mxCell id="9FBKKlJFUN3YDxZt-M1E-28" value="sim" style="text;html=1;align=center;verticalAlign=middle;resizable=0;points=[];autosize=1;strokeColor=none;fillColor=none;" vertex="1" parent="1">
          <mxGeometry x="300" y="118" width="40" height="30" as="geometry" />
        </mxCell>
        <mxCell id="9FBKKlJFUN3YDxZt-M1E-29" style="edgeStyle=orthogonalEdgeStyle;rounded=0;orthogonalLoop=1;jettySize=auto;html=1;exitX=0.5;exitY=1;exitDx=0;exitDy=0;entryX=0.5;entryY=0;entryDx=0;entryDy=0;" edge="1" parent="1" source="9FBKKlJFUN3YDxZt-M1E-25" target="9FBKKlJFUN3YDxZt-M1E-5">
          <mxGeometry relative="1" as="geometry" />
        </mxCell>
        <mxCell id="9FBKKlJFUN3YDxZt-M1E-30" value="não" style="text;html=1;align=center;verticalAlign=middle;resizable=0;points=[];autosize=1;strokeColor=none;fillColor=none;" vertex="1" parent="1">
          <mxGeometry x="400" y="208" width="40" height="30" as="geometry" />
        </mxCell>
      </root>
    </mxGraphModel>
  </diagram>
</mxfile>
